HIERARCHY
ROOT Hips
{
	OFFSET 0.000000 0.000000 0.000000
	CHANNELS 6 Xposition Yposition Zposition Yrotation Xrotation Zrotation
	JOINT Chest
	{
		OFFSET 0.000000 -0.009281 11.569106
		CHANNELS 3 Yrotation Xrotation Zrotation
		JOINT Chest2
		{
			OFFSET -0.000000 0.016865 9.269641
			CHANNELS 3 Yrotation Xrotation Zrotation
			JOINT Chest3
			{
				OFFSET -0.000000 0.000001 8.374491
				CHANNELS 3 Yrotation Xrotation Zrotation
				JOINT Chest4
				{
					OFFSET -0.000000 0.000001 8.374493
					CHANNELS 3 Yrotation Xrotation Zrotation
					JOINT Neck
					{
						OFFSET -0.000000 0.000002 12.152554
						CHANNELS 3 Yrotation Xrotation Zrotation
						JOINT Head
						{
							OFFSET -0.000000 0.040101 7.802319
							CHANNELS 3 Yrotation Xrotation Zrotation
							End Site
							{
								OFFSET -0.000000 0.020947 14.853096
							}
						}
					}
					JOINT RightCollar
					{
						OFFSET 2.894404 0.000001 6.791374
						CHANNELS 3 Yrotation Xrotation Zrotation
						JOINT RightShoulder
						{
							OFFSET 13.574684 0.000001 0.000000
							CHANNELS 3 Yrotation Xrotation Zrotation
							JOINT RightElbow
							{
								OFFSET 23.923903 0.000002 0.000000
								CHANNELS 3 Yrotation Xrotation Zrotation
								JOINT RightWrist
								{
									OFFSET 19.846718 0.012767 0.000000
									CHANNELS 3 Yrotation Xrotation Zrotation
									End Site
									{
										OFFSET 14.973145 0.000001 0.000000
									}
								}
							}
						}
					}
					JOINT LeftCollar
					{
						OFFSET -2.894404 0.000001 6.791374
						CHANNELS 3 Yrotation Xrotation Zrotation
						JOINT LeftShoulder
						{
							OFFSET -13.574684 -0.000001 0.000000
							CHANNELS 3 Yrotation Xrotation Zrotation
							JOINT LeftElbow
							{
								OFFSET -23.923903 -0.000002 0.000000
								CHANNELS 3 Yrotation Xrotation Zrotation
								JOINT LeftWrist
								{
									OFFSET -19.846718 0.012763 0.000000
									CHANNELS 3 Yrotation Xrotation Zrotation
									End Site
									{
										OFFSET -14.973145 -0.000001 0.000000
									}
								}
							}
						}
					}
				}
			}
		}
	}
	JOINT RightHip
	{
		OFFSET 9.469263 0.004643 0.045487
		CHANNELS 3 Yrotation Xrotation Zrotation
		JOINT RightKnee
		{
			OFFSET 0.000000 0.002661 -40.478676
			CHANNELS 3 Yrotation Xrotation Zrotation
			JOINT RightAnkle
			{
				OFFSET 0.000000 0.049106 -35.224068
				CHANNELS 3 Yrotation Xrotation Zrotation
				JOINT RightToe
				{
					OFFSET -0.000001 12.539529 -6.151390
					CHANNELS 3 Yrotation Xrotation Zrotation
					End Site
					{
						OFFSET -0.000001 5.044994 -1.291870
					}
				}
			}
		}
	}
	JOINT LeftHip
	{
		OFFSET -9.469263 0.004641 0.045487
		CHANNELS 3 Yrotation Xrotation Zrotation
		JOINT LeftKnee
		{
			OFFSET 0.000000 0.002661 -40.478676
			CHANNELS 3 Yrotation Xrotation Zrotation
			JOINT LeftAnkle
			{
				OFFSET 0.000000 0.049106 -35.224068
				CHANNELS 3 Yrotation Xrotation Zrotation
				JOINT LeftToe
				{
					OFFSET -0.000001 12.539529 -6.151390
					CHANNELS 3 Yrotation Xrotation Zrotation
					End Site
					{
						OFFSET -0.000001 5.044994 -1.291870
					}
				}
			}
		}
	}
}
MOTION
Frames: 13
Frame Time: 0.016667
9.583906 8.541195 82.584862 -6.295553 -1.277873 -119.976289 9.731273 -4.022111 -3.208362 4.191010 -1.861253 -1.365588 4.191008 -1.861253 -1.365584 3.138840 -1.405391 -1.011391 -9.004682 -14.110828 12.661971 -11.985770 10.254159 20.297270 4.361265 8.149969 0.413363 31.844736 -12.443816 -6.471920 55.083129 -61.699947 54.336419 31.066907 -1.421554 -18.824573 -3.688726 -3.603862 -13.890504 -37.126146 17.606614 -76.111523 -5.039849 -24.986980 -83.809133 11.542671 -25.919615 1.020072 -5.785745 2.298062 11.446577 2.124486 -18.423658 5.968980 -0.046805 9.148571 -3.802427 0.766630 0.224157 0.037667 -7.417915 -5.089405 5.062011 -1.713257 -9.039207 11.277963 4.204197 9.284245 1.815677 0.010397 -0.040593 -0.019123 
9.497681 8.728531 82.480049 -6.303511 -1.015953 -120.290669 9.704147 -4.075491 -3.136910 4.174241 -1.904056 -1.367119 4.174242 -1.904055 -1.367124 3.126150 -1.437465 -1.012298 -9.079428 -13.997081 12.793987 -12.064614 10.468045 20.517888 4.381510 7.983559 0.406539 31.991923 -12.447366 -6.323151 54.893523 -61.707283 54.541939 31.102130 -1.469714 -18.874290 -3.687562 -3.866894 -13.843725 -37.015295 17.610381 -75.826636 -3.642634 -25.535764 -85.245685 16.215825 -26.770392 -2.073309 -5.999028 3.382496 11.762814 2.321045 -20.018764 6.062127 -0.338444 9.656694 -4.007622 0.786066 0.273714 0.063259 -7.671604 -4.368097 4.733249 -1.958243 -10.045513 11.744528 4.365770 9.836357 2.075968 -0.020775 -0.094892 -0.024162 
9.388892 8.928789 82.352066 -6.289116 -0.731673 -120.659103 9.652653 -4.111189 -3.023378 4.140824 -1.951859 -1.369403 4.140823 -1.951859 -1.369404 3.100960 -1.473261 -1.013779 -9.122927 -13.871823 12.902200 -12.092777 10.700783 20.706521 4.439935 7.876537 0.333473 32.116489 -12.447042 -6.149313 54.785094 -61.723880 54.636695 31.139280 -1.523607 -18.907844 -3.712871 -4.148131 -13.831155 -36.882489 17.685088 -75.458052 -2.303225 -26.091135 -86.605077 20.727406 -27.068303 -5.210614 -6.205274 4.580406 12.174980 2.555177 -21.720186 6.091893 -0.643125 10.207872 -4.192740 0.808424 0.310008 0.071923 -7.937672 -3.540324 4.409518 -2.213290 -11.163981 12.256084 4.526700 10.461608 2.350126 -0.055247 -0.170828 -0.030262 
9.271587 9.131298 82.203514 -6.291358 -0.457667 -121.034654 9.579251 -4.157835 -2.909229 4.094986 -2.003159 -1.370074 4.094985 -2.003159 -1.370075 3.066455 -1.511638 -1.014077 -9.137110 -13.737001 12.984377 -12.074920 10.948949 20.858266 4.535662 7.786787 0.227015 32.232090 -12.404988 -6.003373 54.696889 -61.762778 54.693594 31.172126 -1.589826 -18.878014 -3.766118 -4.305428 -13.815630 -36.699645 17.607027 -74.951402 -0.961033 -26.532505 -87.942763 25.068066 -26.762985 -8.309425 -6.405716 5.766873 12.506575 2.783051 -23.426813 6.163613 -0.961819 10.767843 -4.366400 0.832372 0.331773 0.092316 -8.185957 -2.666087 4.125529 -2.501241 -12.406174 12.731399 4.710676 11.163307 2.636042 -0.099317 -0.258264 -0.035537 
9.176542 9.324306 82.039352 -6.398446 -0.222565 -121.334335 9.478984 -4.282495 -2.893044 4.051269 -2.061156 -1.372303 4.051270 -2.061156 -1.372295 3.033512 -1.555053 -1.015497 -9.146249 -13.599892 13.043497 -12.056168 11.201286 20.968882 4.646649 7.750032 0.164888 32.366651 -12.367026 -5.982093 54.537473 -61.797537 54.820744 31.159620 -1.696159 -18.820450 -3.824704 -4.437579 -13.767401 -36.509677 17.389516 -74.382966 0.169745 -26.846950 -89.115008 29.030336 -26.455505 -11.544978 -6.633332 6.789626 12.639063 2.947263 -25.090039 6.262562 -1.227919 11.351040 -4.374615 0.829353 0.339145 0.115087 -8.439517 -1.867391 3.762850 -2.837384 -13.743333 13.259784 4.911602 11.891323 2.909708 -0.148702 -0.308215 -0.037220 
9.108315 9.481071 81.860970 -6.576262 -0.058037 -121.572955 9.392343 -4.469548 -2.958532 4.012434 -2.118108 -1.370944 4.012436 -2.118111 -1.370941 3.004247 -1.597673 -1.014224 -9.153966 -13.473944 13.082477 -12.043554 11.433302 21.042040 4.781921 7.572387 0.166402 32.511434 -12.204652 -6.028414 54.307042 -61.809715 55.032231 31.160204 -1.835811 -18.762029 -3.860561 -4.732307 -13.766788 -36.365232 17.255455 -73.838955 1.110641 -27.109058 -90.119449 32.854750 -25.595804 -14.805582 -6.792528 7.616737 12.644663 2.989882 -26.686664 6.362378 -1.422795 11.999752 -4.352198 0.797272 0.307704 0.180224 -8.660248 -1.143881 3.322841 -3.201001 -15.177771 13.871401 5.098859 12.680490 3.193808 -0.205139 -0.343073 -0.041309 
9.057205 9.624325 81.662445 -6.799389 0.130096 -121.790278 9.252433 -4.677340 -3.048663 3.975781 -2.177410 -1.365294 3.975782 -2.177410 -1.365290 2.976626 -1.642032 -1.009720 -9.160630 -13.351625 13.098030 -12.038482 11.659037 21.071439 4.924350 7.326229 0.192675 32.670284 -11.961803 -6.093361 54.027131 -61.807823 55.288524 31.196001 -1.997153 -18.725471 -3.884260 -5.040020 -13.791861 -36.342275 17.173881 -73.291960 1.780239 -27.451563 -90.981637 36.297756 -24.439708 -17.815836 -6.986530 8.436967 12.605178 2.989710 -28.361244 6.453688 -1.519065 12.707790 -4.262668 0.713021 0.295417 0.207674 -8.915135 -0.454470 2.878394 -3.603992 -16.617376 14.470732 5.312670 13.441974 3.473852 -0.269446 -0.335266 -0.042351 
9.002525 9.761731 81.439926 -6.967679 0.361184 -122.056792 9.096724 -4.832724 -3.073953 3.932981 -2.229641 -1.352327 3.932983 -2.229642 -1.352323 2.944445 -1.681024 -0.999810 -9.153615 -13.236447 13.087102 -12.018850 11.870934 21.056275 5.066655 7.168500 0.138687 32.844375 -11.809579 -6.161372 53.638613 -61.815247 55.632687 31.254782 -2.128869 -18.712393 -3.926069 -5.273909 -13.800029 -36.388441 17.008365 -72.727089 2.232109 -27.908315 -91.721456 39.415939 -23.372409 -20.700852 -7.178014 9.362423 12.689837 3.030696 -30.071923 6.563120 -1.605231 13.443799 -4.249570 0.617173 0.281798 0.196699 -9.172829 0.323811 2.502040 -4.040010 -18.077740 15.088888 5.542912 14.214914 3.776800 -0.335103 -0.321714 -0.040908 
8.935390 9.890017 81.198486 -7.096671 0.578934 -122.348741 8.961043 -4.959890 -3.059764 3.883728 -2.283115 -1.338511 3.883730 -2.283115 -1.338510 2.907427 -1.720934 -0.989281 -9.132602 -13.118548 13.055667 -11.980810 12.087055 21.008146 5.204992 7.064842 0.030210 33.024248 -11.693349 -6.211686 53.162228 -61.842233 56.051910 31.321434 -2.226336 -18.719042 -3.974961 -5.383512 -13.779386 -36.421499 16.715722 -72.135383 2.651706 -28.343183 -92.393069 42.157693 -22.277587 -23.371091 -7.325328 10.321536 12.864079 3.108525 -31.778326 6.640938 -1.718347 14.193014 -4.285438 0.548870 0.261922 0.201259 -9.364967 1.154837 2.197597 -4.529974 -19.586558 15.707412 5.788267 15.035688 4.037301 -0.402407 -0.324957 -0.040728 
8.870824 10.008933 80.943382 -7.217006 0.801645 -122.665894 8.815606 -5.084974 -3.016093 3.827290 -2.338705 -1.319793 3.827288 -2.338705 -1.319795 2.865034 -1.762385 -0.975101 -9.095967 -12.992555 13.005820 -11.920018 12.317098 20.931852 5.323192 7.019028 -0.144215 33.222952 -11.618341 -6.225800 52.717015 -61.859131 56.426863 31.374792 -2.332059 -18.730832 -4.017496 -5.393302 -13.782716 -36.345451 16.341909 -71.481679 3.041373 -28.704816 -93.070459 44.321360 -21.247771 -25.551792 -7.431978 11.295672 13.148455 3.200603 -33.486618 6.619163 -1.837817 14.936116 -4.325699 0.506272 0.257363 0.197794 -9.546952 1.979703 2.106175 -4.987382 -21.071115 16.172474 6.033042 15.844237 4.278277 -0.456770 -0.324800 -0.035851 
8.816509 10.130525 80.675224 -7.342935 1.031393 -122.993375 8.647242 -5.187191 -2.960274 3.768055 -2.388449 -1.302131 3.768057 -2.388452 -1.302127 2.820554 -1.799453 -0.961769 -9.051286 -12.882188 12.948271 -11.848648 12.517827 20.843967 5.447223 6.972151 -0.298059 33.420973 -11.533495 -6.265784 52.412481 -61.862929 56.643216 31.424874 -2.433948 -18.727644 -4.057244 -5.501156 -13.822621 -36.155910 16.059008 -70.812895 3.260789 -29.044440 -93.702231 46.210673 -20.303301 -27.597388 -7.553278 12.267419 13.499129 3.331912 -35.182352 6.497280 -1.950178 15.677863 -4.288863 0.483435 0.262466 0.172842 -9.749109 2.772200 2.141033 -5.400840 -22.497583 16.520949 6.296769 16.623857 4.553350 -0.508269 -0.326253 -0.033467 
8.785480 10.243532 80.402130 -7.475026 1.235687 -123.319489 8.487186 -5.294584 -2.906306 3.709980 -2.435015 -1.282369 3.709980 -2.435017 -1.282367 2.776969 -1.834134 -0.946886 -9.007461 -12.788233 12.878803 -11.785355 12.688685 20.732746 5.580405 6.902573 -0.435753 33.591301 -11.423781 -6.304253 52.216281 -61.863646 56.743699 31.457956 -2.553235 -18.678165 -4.078747 -5.674008 -13.901179 -35.980166 15.874417 -70.124856 3.479825 -29.437787 -94.320466 48.107348 -19.045912 -29.729157 -7.644907 13.155966 13.866977 3.452867 -36.784838 6.395900 -2.092012 16.404204 -4.304459 0.484035 0.253907 0.143954 -9.934014 3.499065 2.298654 -5.786906 -23.875461 16.824211 6.543302 17.415237 4.770268 -0.538217 -0.335859 -0.029457 
8.773531 10.339071 80.130661 -7.581138 1.418126 -123.654277 8.356497 -5.402144 -2.837940 3.651248 -2.483336 -1.258447 3.651245 -2.483337 -1.258446 2.732905 -1.870106 -0.928882 -8.959719 -12.704362 12.786730 -11.724935 12.841167 20.579951 5.692252 6.836219 -0.593792 33.756560 -11.328773 -6.304687 52.107073 -61.853046 56.777385 31.495119 -2.680801 -18.592663 -4.144517 -5.707910 -13.957128 -35.789918 15.573135 -69.409304 3.698804 -29.848391 -94.951951 49.684080 -17.910826 -31.571918 -7.680315 13.989006 14.183560 3.480539 -38.286779 6.446079 -2.266962 17.088797 -4.367446 0.508844 0.244462 0.141388 -10.082150 4.217785 2.458648 -6.160687 -25.244729 17.177127 6.749039 18.221049 4.933147 -0.560173 -0.348560 -0.028336 
